<?xml version="1.0" encoding="utf-8"?>
<!-- Generator: Adobe Illustrator 18.0.0, SVG Export Plug-In . SVG Version: 6.00 Build 0)  -->
<!DOCTYPE svg PUBLIC "-//W3C//DTD SVG 1.1//EN" "http://www.w3.org/Graphics/SVG/1.1/DTD/svg11.dtd">
<svg version="1.1" id="Layer_1" xmlns="http://www.w3.org/2000/svg" xmlns:xlink="http://www.w3.org/1999/xlink" x="0px" y="0px"
	 viewBox="0 0 67.5 63.2" enable-background="new 0 0 67.5 63.2" xml:space="preserve">
<path fill="#F2F0E3" d="M14.9,56.7c-0.4-0.2-0.8-0.3-1.3-0.1c-2.9,0.9-6.3,0.2-6.3,0.2c0.1,3.3,4.8,6.4,4.8,6.4
	c-0.1-1.4,2.2-3.5,3.7-4.6c0.4-0.4,0.4-1.1-0.1-1.4L14.9,56.7z"/>
<path fill="#F2F0E3" d="M41.4,46.4c0,0-2.9,2.2-2.8,3.5c0,0,0.5,2.1,0,3.1c-0.5,1,0.4,0.9,0.6,0.1c0.2-0.8,0.3-1,0.3-1
	c0.3-1.1,0.3-2.2,0.3-2.2l2.9-2.6c0,0,2.1-0.6,2.4-5.4l-3,1C42.1,42.9,40.9,44.3,41.4,46.4z"/>
<path fill="#F2F0E3" d="M23,1.1c0.6,0.4,1.7,1.2,3.3,2.6l6.1,10l-6.1-3.3c-0.4-1.1-0.4-2.2,0.1-3.1L26.6,7l-0.2-0.2
	C24.8,5.1,22.9,2.4,23,1.1z M39.4,19.6c-0.3,0-0.7-0.1-1.1-0.1c-0.4,0-0.8,0-1.1,0.1L28.6,5.9C31.6,8.8,35.2,13.2,39.4,19.6z
	 M35.4,20.2c-1.2-0.8-6.4-4.8-8.4-8.6l6.4,3.5l2.9,4.7C36,19.9,35.7,20.1,35.4,20.2z M35.1,21.1l0.2,0.1l0.2-0.2
	c0.5-0.4,1.4-0.7,2.6-0.7c0.4,0,0.9,0,1.2,0.1c0.2,0,0.4,0,0.5,0c0.1,0,0.4,0,0.5-0.2l0.1-0.2l-0.1-0.2C30.7,4.4,23.3,0.4,23,0.1
	L22.7,0l-0.2,0.3c-1.3,1.9,2.2,5.8,3.1,6.8C23.4,12.8,34.6,20.8,35.1,21.1z"/>
<path fill="#F2F0E3" d="M51.5,49.2c0,0-0.3,2.6,0.8,2.6s1.7-1,2-2.1C54.3,49.6,53.6,48,51.5,49.2z"/>
<path fill="#F2F0E3" d="M1.2,20.9c-0.2-0.3-0.3-0.6-0.4-0.9l9.8,1h1.8l2.5,1.9L9,25.3C5.1,23.9,2.1,22.4,1.2,20.9z M7.5,14.9
	l8.8,5.2l-5.6,0.1l-9.8-1.1C1.6,16.8,4.3,15.5,7.5,14.9z M18.3,15.6c3.6,1.8,18.5,11.2,21.6,15.9l0.1,0.1L19.9,20.2l-0.1-0.1h-1.9
	l-9.2-5.4c1-0.1,1.9-0.1,2.9-0.1C14.4,14.6,17,14.9,18.3,15.6z M15.8,23.5l9.2,4.3l7.6,0.6l7,4c-0.1,0-0.2,0-0.3,0
	c-5.9-0.9-19.7-3.5-29.1-6.7L15.8,23.5z M19.5,20.9l11.3,6.4L25.2,27l-9.3-4.3l-2.2-1.7L19.5,20.9z M27.2,47.2
	c2.4-5,5.7-5.9,5.7-5.9c-2.9-3.7-3.9-7.1-3.9-10c0.6,0.1,1.3,0.2,1.8,0.4c0.1,3,1.1,6,2.8,7.9c4.2,4.9,11.2,0.7,11.2,0.7
	c1.2-8.7,6.1-9.8,6.1-9.8c0.8-1.9-1.9-10.6-11.9-9.4c-2.6,0.4-4.6,1.5-5.9,3.1C27.6,20.1,21,16,18.7,14.8c-1.4-0.8-4.2-1.2-7.1-1.2
	c-2.5,0-10.6,0.4-11.6,5.9c-0.1,0.6,0.1,1.3,0.4,1.9C2.1,23.8,8.2,26,15,28c0,0.1,0,0.1,0.1,0.3c7.3,9.4,5.6,10.4,5.6,10.4
	c-1,2.2-3.9,0-10.1-7.3c-1.6,1.8-3.1,5.5-3.1,5.5c2.6,2.5,4.7,4.4,7.6,6.3c1.2,0.8,0.6,2.6-0.8,2.5c-3.3-0.1-6.5-2.9-8.6-4.2
	C5,45,5.3,47.9,5.3,47.9c2.3,0.9,4.2,1.1,7.9,2c1.7,0.4,1.4,3-0.4,3c-1.6-0.1-4.1-0.7-7.7-1.6c0.2,1.3,0.8,3.7,1.3,4
	c1.4,0.8,7.9,0,7.9,0l2.9,1.6C19.5,55.2,24.9,52.2,27.2,47.2z"/>
<path fill="#F2F0E3" d="M54.3,39.3c-0.6,2.9-2.5,5.1-3.8,4.9c-1.3-0.3-2.3-2.8-1.7-5.7c0.6-2.9,2.6-5,3.9-4.7
	C54,34,54.9,36.4,54.3,39.3z M63.9,36.4c-0.2-0.3-1.5-0.8-2.9-1.4c-0.8-3.1-3.2-4-3.2-4s0,0-0.1,0l2.8-2.8c0,0,4.6-1.4,5.6-1.7
	c1.1-0.4,0-0.7,0-0.7s-4.9,1.4-5.6,1.7c-0.4,0.1-2.2,1.7-3.4,3.1c-1-0.4-2.8-0.5-5.4,0.8c-4.2,2.1-8.7,9.2-1.9,15.8l1.6,1.1
	c0,0,1.4-1.6,3.3,0c0,0,6.6-2.6,6.6-11.6c0-0.3,0-0.6-0.1-0.9l2,0.8c0,0,2.9,4.2,3.5,5c0.6,0.8,0.7-0.2,0.7-0.2S64.4,37.1,63.9,36.4
	z"/>
<path fill="#F2F0E3" d="M36.1,52.9L36.1,52.9c0,0-1.9-1.2-2.1-2.9c0,0,1.1-2.3-1.1-7.1c0,0-2.6,0.8-2.6,2.4c0,0,1.1,4.2,2.6,4.7
	c0,0,1.6,3.8,3,4.1c0,0,0.1,0,0.1,0l0,0c0,0,0,0,0.1,0c0.2-0.1,0.4-0.3,0.4-0.6C36.4,53.2,36.3,52.9,36.1,52.9z"/>
<path fill="#F2F0E3" d="M30.4,59.2c-0.1-0.4-0.4-1.4-1-2.6c0,0-0.6-3.1-3.8-5.1l-2.5,2.6c0,0,2.1,2.2,3.5,3.4
	c0.6,0.5,1.5,0.3,1.8-0.4l1.4,2.4c0.1,0.1,0.1,0.2,0.2,0.2c0.1,0,0.3-0.1,0.3-0.4l0,0C30.4,59.3,30.4,59.2,30.4,59.2z"/>
</svg>
